<svg width="800" height="600" xmlns="http://www.w3.org/2000/svg" style="vector-effect: non-scaling-stroke;" stroke="null">

 <g stroke="null">
  <title stroke="null">Layer 1</title>
  <path stroke="#000" stroke-width="0" id="svg_3" d="m263.06309,46.51039c0,0 0,-13.59033 4.07389,-22.38801c2.33447,-4.97023 9.78989,-7.49632 9.78989,-7.49632c0,0 8.00614,-3.65406 17.70814,-2.87788c7.51646,0.59876 17.2354,5.65046 17.2354,5.65046c0,0 10.73898,0.33407 14.42458,7.16273c4.49967,8.39631 -2.60449,18.18994 -2.60449,18.18994c0,0 0.94245,5.71485 4.56712,10.51587c2.98627,3.94692 8.79669,7.21264 8.79669,7.21264c0,0 1.10124,0.99192 1.92563,2.87868c0.72961,1.72174 1.15517,4.41704 1.15517,4.41704c0,0 3.58089,3.24769 3.82757,7.27237c0.27352,4.30272 -2.79377,9.41463 -2.79377,9.41463c0,0 -1.39843,7.95308 -3.9389,13.69483c-1.63835,3.72763 -4.8139,6.11204 -4.8139,6.11204c0,0 -7.27643,7.57843 -16.16433,9.3285c-6.72248,1.31939 -15.6983,-3.07027 -15.6983,-3.07027c0,0 4.61125,17.8929 4.09104,36.11987c0.73682,28.60889 -16.86177,52.75889 -24.39017,84.97926c-2.65867,9.70733 -1.02021,20.99037 -1.02021,20.99037c0,0 -0.76346,28.31749 -3.57403,53.53266c-2.29047,20.72087 -6.68874,39.23989 -6.68874,39.23989c0,0 2.69167,11.19288 2.03707,18.40955c2.28137,1.83958 12.04192,9.88958 10.79991,16.32604c-1.86364,0.40604 -5.31391,-2.08318 -5.31391,-2.08318c0,0 -1.58084,2.28411 -3.53356,2.63155c-1.43556,0.27354 -2.77673,0.66267 -3.40519,-1.33453c-3.36448,0.99095 -9.3304,-2.66777 -9.3304,-2.66777c0,0 -4.59078,-4.53167 -6.75619,-9.35491c-1.17222,-2.58598 -3.02152,-0.1903 -0.6216,-6.97146c2.40005,-6.78116 -0.24654,-8.12148 -0.24654,-8.12148c0,0 -5.36456,3.48049 -8.93855,3.27071c-1.75658,-0.11882 -3.0808,-4.01952 -3.0808,-4.01952c0,0 0.64515,-8.14081 0.21945,-15.27568c-0.62822,-10.15025 -2.41196,-20.33688 -2.41196,-20.33688c0,0 -4.29691,-6.25888 -7.64802,-24.19766c-2.31745,-12.38347 -2.56403,-29.747 -4.18558,-42.53282c-1.62155,-13.00509 -4.8784,-21.55033 -4.61114,-21.35117c-7.80952,13.48584 -17.6001,16.687 -17.6001,16.687c0,0 1.59789,20.49273 0.2534,37.20211c-1.29052,16.11143 -5.51656,28.4545 -5.51656,28.4545c0,0 -4.46737,14.86223 -5.80699,24.92393c-0.95347,7.16192 0.19036,8.91795 1.06078,10.69812c5.30701,8.42143 28.96897,-6.87357 34.58871,4.13851c0.57771,0.43872 1.80054,2.50307 3.21601,3.67241c1.50325,1.24292 4.48277,7.38265 3.58421,8.07689c-0.74655,0.60294 -2.35119,-0.08227 -2.35119,-0.08227c0,0 0.43232,3.75468 -0.56077,5.12527c-1.06078,1.39764 -3.53357,0.44726 -3.53357,0.44726c0,0 -1.6114,-1.73574 -4.6348,-2.22873c-2.87812,-0.46609 -7.1988,0.31025 -7.1988,0.31025c0,0 -11.73942,-5.80566 -22.09981,3.80089c-5.46353,3.8772 -9.63777,3.90119 -15.17124,4.83274c-3.08077,0.52083 -4.47601,-2.73137 -4.47601,-2.73137c0,0 -1.01685,1.83637 -3.05382,3.42592c-2.32074,1.77229 -4.79699,4.385 -4.79699,4.385c0,0 1.16203,1.94649 3.03026,3.32545c1.17898,0.84107 3.40508,1.37092 3.40508,1.37092c0,0 8.59912,1.81318 16.72524,-1.70821c1.34792,-0.10964 11.1985,7.07997 12.47887,8.61479c0.97629,1.15131 -0.95169,4.70361 -2.58769,5.62791c-8.35527,6.7203 -14.27076,-3.20808 -27.6534,3.68223c-12.34978,2.03182 -17.45484,-0.25615 -21.57284,-4.31222c-2.73283,-2.68629 -2.95585,-8.42384 -2.95585,-8.42384c0,0 -3.95581,-7.19042 -4.26993,-13.87804c-0.13524,-2.95065 5.22256,-13.44833 7.46228,-18.80191c1.84446,-4.36696 4.00988,-9.71152 4.00988,-9.71152c0,0 1.72956,-4.9699 2.90178,-11.31041c0.87489,-4.60524 1.03712,-10.0406 2.1148,-14.45345c1.29038,-5.40896 3.58074,-9.68399 3.58074,-9.68399c0,0 -6.19552,-6.6786 -10.94176,-15.03836c-5.87454,-10.38322 -10.51278,-22.8356 -10.51278,-22.8356c0,0 -15.28943,-15.36697 -26.70752,-33.85363c-7.22575,-11.67186 -12.60045,-29.71988 -12.60045,-29.71988c0,0 -2.67771,3.78946 -6.47595,8.58356c-26.98776,34.06397 -29.14785,103.3492 -37.63567,178.42736c-5.52114,48.83653 -18.69805,80.01016 -27.24816,90.1237c-7.78327,9.21821 -17.54939,9.69349 -17.54939,9.69349c0,0 -6.10431,0.13685 -6.80011,-1.57153c-0.66892,-1.58086 4.10099,-5.04348 4.10099,-5.04348c0,0 8.75363,-6.09739 14.24559,-15.75047c22.99752,-40.42171 25.31497,-157.62906 35.61729,-207.3251c5.20636,-25.11455 12.22533,-92.30653 61.20348,-128.97927c35.59091,-26.64904 112.51481,-44.63226 131.78441,-77.87602c3.87145,-6.67909 8.06708,-13.581 8.06708,-13.581z" fill="#ffffff"/>
  <!-- <path stroke="#000" stroke-width="0" id="svg_3" d="M134.223,153.724c-0.085,0.053-9.105,5.398-18.362,3.021c-4.32-1.09-8.115-3.727-11.381-7.798 c12.463-2.108,21.52-10.235,21.52-20.302c0-2.132-1.735-3.879-3.875-3.879c-2.136,0-3.879,1.747-3.879,3.879 c0,7.109-9.197,13.112-20.092,13.112c-10.878,0-20.083-6.003-20.083-13.112c0-2.132-1.731-3.879-3.883-3.879 c-2.146,0-3.879,1.747-3.879,3.879c0,10.066,9.051,18.193,21.516,20.302c-3.25,4.079-7.057,6.708-11.373,7.798 c-9.265,2.377-18.276-2.969-18.372-3.021c-1.184-0.729-2.713-0.781-3.914-0.06c-1.226,0.673-1.989,1.96-1.989,3.37 c0,0.678,0.134,16.639,10.974,27.187c6.374,6.188,14.799,9.093,25.58,8.849c2.134-0.064,3.821-1.844,3.759-4.004 c-0.064-2.14-1.894-3.879-4.005-3.763c-8.203,0.252-15.086-1.972-19.883-6.624c-4.749-4.585-6.899-10.78-7.873-15.365 c4.526,1.479,10.856,2.613,17.515,0.982c6.179-1.52,11.513-5.146,15.888-10.772c4.401,5.627,9.707,9.253,15.883,10.772 c6.532,1.595,12.744,0.521,17.268-0.898c-2.224,8.44-8.948,22.081-29.357,22.233c-2.145,0.017-3.882,1.779-3.854,3.903 c0.014,2.128,1.747,3.855,3.865,3.855c0.016,0,0.016,0,0.016,0c36.352-0.261,38.131-35.854,38.146-36.207 c0.045-1.427-0.693-2.77-1.919-3.475C136.984,152.951,135.441,152.996,134.223,153.724z" fill="#000000"/> <path d="M164.323,69.815c2.236,0.377,4.047-1.288,4.292-3.414c0.252-2.136-1.271-4.068-3.41-4.31 c-17.137-1.932-29.756,1.35-37.466,9.844c-11.177,12.263-7.498,30.437-7.354,31.222c0.393,1.825,1.999,3.088,3.795,3.088 c0.261,0,0.513-0.012,0.798-0.093c2.1-0.429,3.45-2.486,3.021-4.59c-0.032-0.08-0.89-4.875-0.217-10.668 c2.517,1.395,5.322,2.204,8.26,2.204c9.986,0,18.146-8.75,18.146-19.514c0-1.431-0.485-2.757-0.754-4.105 C156.777,69.282,160.351,69.366,164.323,69.815z M146.414,73.56c0,6.482-4.661,11.762-10.388,11.762 c-2.256,0-4.315-0.968-6.095-2.469c0.881-2.01,1.983-3.979,3.57-5.721c3.006-3.3,7.146-5.52,12.351-6.73 C146.105,71.448,146.414,72.476,146.414,73.56z" fill="#000000"/> <path d="M174.886,92.048c2.124-0.291,3.603-2.254,3.311-4.382c-0.289-2.128-2.236-3.557-4.369-3.312 c-10.303,1.411-22.653,7.702-22.906,29.681c-0.26,23.408-15.761,25.6-16.559,25.684c-2.056,0.093-3.711,1.792-3.711,3.88 c0,2.136,1.731,3.879,3.863,3.879c4.721,0,23.849-5.943,24.157-33.35C158.848,100.566,163.998,93.523,174.886,92.048z" fill="#000000"/> <path d="M191.369,64.609c-0.061-0.203-0.293-0.283-0.385-0.479c7.73-25.836,7.025-42.024-2.269-49.317 c-13.309-10.423-37.257,3.324-39.941,4.933c-1.848,1.096-2.453,3.468-1.351,5.328c1.114,1.843,3.498,2.418,5.322,1.353 c6.055-3.587,23.427-11.614,31.178-5.488c6.355,5,6.095,20.009-0.742,42.272c-0.368,1.226,0.024,2.364,0.729,3.324 c0.013,0.084-0.048,0.135-0.023,0.203c0.092,0.291,8.127,29.649-7.867,41.17c-1.402,0.998-1.972,2.821-1.387,4.456 c0.024,0.084,2.766,7.967-0.806,13.798c-2.224,3.675-6.632,5.975-13.031,6.873c-2.133,0.28-3.619,2.244-3.314,4.384 c0.256,1.939,1.932,3.351,3.827,3.351c0.16,0,0.353-0.017,0.513-0.041c8.917-1.242,15.188-4.788,18.646-10.587 c3.879-6.4,3.074-13.737,2.208-17.649C200.309,97.082,191.746,65.982,191.369,64.609z" fill="#000000"/> <path d="M68.3,101.562c-0.44,2.104,0.924,4.161,3.02,4.59c0.268,0.081,0.527,0.093,0.809,0.093c1.798,0,3.409-1.242,3.783-3.088 c0.158-0.785,3.815-18.959-7.348-31.236c-7.724-8.496-20.346-11.776-37.461-9.83c-2.128,0.242-3.665,2.16-3.417,4.31 c0.23,2.126,1.994,3.791,4.306,3.414c3.956-0.449,7.542-0.509,10.878-0.353c-0.269,1.364-0.755,2.669-0.755,4.098 c0,10.764,8.141,19.522,18.149,19.522c2.897,0,5.708-0.823,8.253-2.21C69.194,96.679,68.323,101.482,68.3,101.562z M60.274,85.322 c-5.723,0-10.377-5.28-10.377-11.762c0-1.114,0.307-2.128,0.571-3.158c5.198,1.196,9.332,3.442,12.321,6.717 c1.609,1.739,2.699,3.725,3.581,5.719C64.585,84.354,62.528,85.322,60.274,85.322z" fill="#000000"/> <path d="M65.583,143.782c0.092-2.071-1.549-3.858-3.604-4.056c-0.165-0.008-16.314-1.779-16.589-25.684 c-0.227-21.986-12.593-28.284-22.908-29.681c-2.07-0.252-4.09,1.17-4.37,3.296c-0.291,2.128,1.178,4.091,3.312,4.39 c10.914,1.499,16.054,8.518,16.188,22.095c0.322,27.415,19.462,33.35,24.165,33.35C63.854,147.485,65.487,145.858,65.583,143.782z " fill="#000000"/> <path d="M35.508,133.035c-6.414-0.898-10.826-3.198-13.032-6.873c-3.555-5.831-0.826-13.714-0.817-13.798 c0.583-1.635,0.016-3.458-1.387-4.456c-16.001-11.521-7.971-40.88-7.875-41.17c0.024-0.076-0.042-0.142-0.022-0.203 c0.705-0.959,1.096-2.098,0.727-3.324c-6.838-22.263-7.095-37.255-0.747-42.265c7.736-6.069,25.139,1.894,31.198,5.48 c1.805,1.074,4.232,0.491,5.324-1.353c1.108-1.852,0.489-4.232-1.36-5.328c-2.691-1.595-26.659-15.318-39.948-4.933 C-1.729,22.13-2.426,38.294,5.29,64.13c-0.084,0.172-0.314,0.252-0.375,0.479c-0.385,1.373-8.942,32.472,8.674,47.882 c-0.855,3.912-1.671,11.249,2.188,17.649c3.48,5.782,9.744,9.329,18.645,10.587c0.172,0.024,0.356,0.041,0.529,0.041 c1.906,0,3.577-1.403,3.837-3.351C39.126,135.279,37.642,133.315,35.508,133.035z" fill="#000000"/> <path d="M65.702,24.541c1.074,0,2.128-0.449,2.894-1.302c1.024-1.146,25.249-27.665,59.604-0.353 c1.671,1.318,4.107,1.058,5.442-0.621c1.334-1.679,1.065-4.122-0.613-5.448c-40.072-31.887-69.934,0.924-70.24,1.262 c-1.415,1.601-1.272,4.06,0.331,5.488C63.869,24.221,64.774,24.541,65.702,24.541z" fill="#000000"/> <path d="M57.605,54.579c1.078,0,2.128-0.449,2.899-1.304c1.302-1.445,32.352-35.093,75.774-0.551 c1.671,1.327,4.115,1.062,5.441-0.621c1.351-1.679,1.074-4.113-0.612-5.432c-49.256-39.237-86.036,1.046-86.423,1.468 c-1.41,1.603-1.272,4.043,0.329,5.466C55.77,54.24,56.689,54.579,57.605,54.579z" fill="#000000"/> -->
  <text font-style="normal" font-weight="normal" stroke="#000" transform="matrix(2.78133 0 0 10.4545 -830.44 -2582.13)" xml:space="preserve" text-anchor="start" font-family="sans-serif" font-size="22" stroke-width="0" id="svg_5" y="288" x="405" fill="#ffffff">Home application</text>
 </g>
</svg>
