<svg width="800" height="600" xmlns="http://www.w3.org/2000/svg" style="vector-effect: non-scaling-stroke;" stroke="null">

 <g stroke="null">
  <title stroke="null">Layer 1</title>
  <path stroke="#000" stroke-width="0" id="svg_3" d="m607.00654,40.51039c0,0 0,-13.59033 9.61487,-22.38801c5.50963,-4.97023 23.10531,-7.49632 23.10531,-7.49632c0,0 18.89544,-3.65406 41.79332,-2.87788c17.73974,0.59876 40.6776,5.65046 40.6776,5.65046c0,0 25.34527,0.33407 34.04373,7.16273c10.61976,8.39631 -6.14691,18.18994 -6.14691,18.18994c0,0 2.22429,5.71485 10.77895,10.51587c7.04795,3.94692 20.76124,7.21264 20.76124,7.21264c0,0 2.59906,0.99192 4.54472,2.87868c1.72197,1.72174 2.72634,4.41704 2.72634,4.41704c0,0 8.45133,3.24769 9.03352,7.27237c0.64554,4.30272 -6.59363,9.41463 -6.59363,9.41463c0,0 -3.30046,7.95308 -9.29627,13.69483c-3.8667,3.72763 -11.36138,6.11204 -11.36138,6.11204c0,0 -17.17324,7.57843 -38.14974,9.3285c-15.86585,1.31939 -37.04986,-3.07027 -37.04986,-3.07027c0,0 10.8831,17.8929 9.65534,36.11987c1.73898,28.60889 -39.79579,52.75889 -57.56371,84.97926c-6.27478,9.70733 -2.40782,20.99037 -2.40782,20.99037c0,0 -1.80186,28.31749 -8.43514,53.53266c-5.40578,20.72087 -15.78622,39.23989 -15.78622,39.23989c0,0 6.35266,11.19288 4.80773,18.40955c5.3843,1.83958 28.42037,9.88958 25.48907,16.32604c-4.39841,0.40604 -12.54146,-2.08318 -12.54146,-2.08318c0,0 -3.73097,2.28411 -8.33962,2.63155c-3.38809,0.27354 -6.55341,0.66267 -8.03665,-1.33453c-7.94057,0.99095 -22.02086,-2.66777 -22.02086,-2.66777c0,0 -10.83479,-4.53167 -15.94541,-9.35491c-2.76658,-2.58598 -7.13115,-0.1903 -1.46705,-6.97146c5.6644,-6.78116 -0.58186,-8.12148 -0.58186,-8.12148c0,0 -12.661,3.48049 -21.09604,3.27071c-4.14574,-0.11882 -7.27105,-4.01952 -7.27105,-4.01952c0,0 1.52263,-8.14081 0.51793,-15.27568c-1.48267,-10.15025 -5.69251,-20.33688 -5.69251,-20.33688c0,0 -10.14122,-6.25888 -18.05024,-24.19766c-5.46946,-12.38347 -6.05142,-29.747 -9.87847,-42.53282c-3.82705,-13.00509 -11.5136,-21.55033 -10.88284,-21.35117c-18.4314,13.48584 -41.53833,16.687 -41.53833,16.687c0,0 3.77121,20.49273 0.59805,37.20211c-3.04578,16.11143 -13.01974,28.4545 -13.01974,28.4545c0,0 -10.54353,14.86223 -13.70519,24.92393c-2.2503,7.16192 0.44927,8.91795 2.50357,10.69812c12.52518,8.42143 68.37022,-6.87357 81.63347,4.13851c1.36346,0.43872 4.24949,2.50307 7.59017,3.67241c3.54785,1.24292 10.57987,7.38265 8.45916,8.07689c-1.76195,0.60294 -5.54909,-0.08227 -5.54909,-0.08227c0,0 1.02033,3.75468 -1.32348,5.12527c-2.50357,1.39764 -8.33965,0.44726 -8.33965,0.44726c0,0 -3.8031,-1.73574 -10.93868,-2.22873c-6.79271,-0.46609 -16.99003,0.31025 -16.99003,0.31025c0,0 -27.70643,-5.80566 -52.15818,3.80089c-12.89458,3.8772 -22.74628,3.90119 -35.80593,4.83274c-7.27098,0.52083 -10.56392,-2.73137 -10.56392,-2.73137c0,0 -2.39989,1.83637 -7.20738,3.42592c-5.47722,1.77229 -11.32147,4.385 -11.32147,4.385c0,0 2.74253,1.94649 7.15177,3.32545c2.78253,0.84107 8.03639,1.37092 8.03639,1.37092c0,0 20.29495,1.81318 39.47356,-1.70821c3.18125,-0.10964 26.42979,7.07997 29.45162,8.61479c2.30416,1.15131 -2.2461,4.70361 -6.10726,5.62791c-19.71943,6.7203 -33.68069,-3.20808 -65.26532,3.68223c-29.14695,2.03182 -41.1955,-0.25615 -50.91447,-4.31222c-6.4498,-2.68629 -6.97616,-8.42384 -6.97616,-8.42384c0,0 -9.33618,-7.19042 -10.07754,-13.87804c-0.31918,-2.95065 12.32586,-13.44833 17.61187,-18.80191c4.35315,-4.36696 9.46379,-9.71152 9.46379,-9.71152c0,0 4.08197,-4.9699 6.84855,-11.31041c2.06484,-4.60524 2.44773,-10.0406 4.99118,-14.45345c3.04545,-5.40896 8.45097,-9.68399 8.45097,-9.68399c0,0 -14.62217,-6.6786 -25.82386,-15.03836c-13.86461,-10.38322 -24.81141,-22.8356 -24.81141,-22.8356c0,0 -36.08488,-15.36697 -63.03293,-33.85363c-17.05363,-11.67186 -29.73856,-29.71988 -29.73856,-29.71988c0,0 -6.31971,3.78946 -15.28401,8.58356c-63.69433,34.06397 -68.7924,103.3492 -88.82466,178.42736c-13.03055,48.83653 -44.12962,80.01016 -64.3089,90.1237c-18.36944,9.21821 -41.41865,9.69349 -41.41865,9.69349c0,0 -14.4069,0.13685 -16.04907,-1.57153c-1.57873,-1.58086 9.67882,-5.04348 9.67882,-5.04348c0,0 20.65961,-6.09739 33.62129,-15.75047c54.27689,-40.42171 59.74634,-157.62906 84.06105,-207.3251c12.28763,-25.11455 28.85323,-92.30653 144.4475,-128.97927c83.99879,-26.64904 265.54835,-44.63226 311.0269,-77.87602c9.13708,-6.67909 19.03927,-13.581 19.03927,-13.581z" fill="#ffffff"/>
 </g>
</svg>